<?xml version="1.0" encoding="utf-8"?>
<!-- Generator: Adobe Illustrator 22.0.1, SVG Export Plug-In . SVG Version: 6.00 Build 0)  -->
<svg version="1.1" id="Layer_1" xmlns="http://www.w3.org/2000/svg" xmlns:xlink="http://www.w3.org/1999/xlink" x="0px" y="0px"
	 viewBox="0 0 617.9 136.2" style="enable-background:new 0 0 617.9 136.2;" xml:space="preserve">
<style type="text/css">
	.st0{fill:#0E44FF;}
</style>
<g>
	<path class="st0" d="M113.2,15.6h-0.8v0H29L52,38.7h58.9v58.7l23.1,23.1v-84C134,24.9,124.7,15.6,113.2,15.6z"/>
	<path class="st0" d="M52,71.9h33.4L62.3,48.9H52h-1.3h-1.4C38.1,48.9,29,58.2,29,69.7v30c0,11.5,9.1,20.8,20.4,20.8h2.1v0h59.5
		V97.4H52V71.9z"/>
</g>
<path class="st0" d="M181.4,66.9c0-4,0.7-7.8,2.2-11.4c1.4-3.6,3.4-6.9,6-9.6c2.6-2.8,5.6-4.9,9.2-6.5c3.6-1.6,7.5-2.4,11.8-2.4
	c3.3,0,6.7,0.8,10,2.5c3.3,1.6,5.9,3.9,7.7,6.8v-7.7h13.3v57h-13.3v-7.7c-1.8,2.9-4.3,5.1-7.7,6.8c-3.3,1.6-6.6,2.5-10,2.5
	c-4.3,0-8.3-0.8-11.9-2.4c-3.6-1.6-6.6-3.8-9.2-6.6c-2.6-2.8-4.6-6-6-9.6C182.2,74.8,181.4,71,181.4,66.9 M194.8,66.9
	c0,2.4,0.4,4.8,1.2,7c0.8,2.2,1.9,4.1,3.4,5.8c1.5,1.6,3.2,2.9,5.3,3.9c2.1,1,4.3,1.5,6.8,1.5c2.5,0,4.8-0.5,6.9-1.5
	c2.1-1,3.9-2.3,5.3-3.9c1.5-1.6,2.6-3.6,3.4-5.8c0.8-2.2,1.2-4.5,1.2-7c0-2.4-0.4-4.8-1.2-7c-0.8-2.2-2-4.1-3.4-5.8
	c-1.5-1.6-3.2-2.9-5.3-3.9c-2.1-1-4.4-1.5-6.9-1.5c-2.5,0-4.8,0.5-6.8,1.5c-2.1,1-3.8,2.3-5.3,3.9c-1.5,1.6-2.6,3.5-3.4,5.7
	C195.2,62.1,194.8,64.4,194.8,66.9"/>
<path class="st0" d="M249.1,120.4v-82h13.3v7.7c1.8-2.9,4.3-5.1,7.7-6.8c3.3-1.6,6.6-2.5,10-2.5c4.3,0,8.3,0.8,11.9,2.4
	c3.6,1.6,6.6,3.8,9.2,6.5c2.6,2.8,4.6,6,6,9.6c1.4,3.6,2.2,7.5,2.2,11.5c0,4.1-0.7,7.9-2.2,11.5c-1.4,3.6-3.4,6.8-6,9.6
	c-2.6,2.8-5.6,5-9.2,6.6c-3.6,1.6-7.5,2.4-11.8,2.4c-3.3,0-6.7-0.8-10-2.5c-3.3-1.6-5.9-3.9-7.7-6.8v32.7H249.1z M262.4,66.9
	c0,2.4,0.4,4.8,1.2,7c0.8,2.2,1.9,4.1,3.3,5.8s3.2,2.9,5.3,3.9c2.1,1,4.4,1.5,7,1.5c2.5,0,4.8-0.5,6.8-1.5c2.1-1,3.8-2.3,5.3-3.9
	c1.5-1.6,2.6-3.6,3.4-5.8c0.8-2.2,1.2-4.5,1.2-7c0-2.4-0.4-4.8-1.2-7c-0.8-2.2-1.9-4.1-3.4-5.8c-1.5-1.6-3.2-2.9-5.3-3.9
	c-2.1-1-4.3-1.5-6.8-1.5c-2.6,0-5,0.5-7.1,1.5c-2.1,1-3.8,2.3-5.3,3.9c-1.5,1.6-2.6,3.5-3.3,5.7C262.8,62.1,262.4,64.4,262.4,66.9"
	/>
<path class="st0" d="M315.2,120.4v-82h13.3v7.7c1.8-2.9,4.3-5.1,7.7-6.8c3.3-1.6,6.6-2.5,10-2.5c4.3,0,8.3,0.8,11.9,2.4
	c3.6,1.6,6.6,3.8,9.2,6.5c2.6,2.8,4.6,6,6,9.6c1.4,3.6,2.2,7.5,2.2,11.5c0,4.1-0.7,7.9-2.2,11.5c-1.4,3.6-3.4,6.8-6,9.6
	c-2.6,2.8-5.6,5-9.2,6.6c-3.6,1.6-7.5,2.4-11.8,2.4c-3.3,0-6.7-0.8-10-2.5c-3.3-1.6-5.9-3.9-7.7-6.8v32.7H315.2z M328.5,66.9
	c0,2.4,0.4,4.8,1.2,7c0.8,2.2,1.9,4.1,3.3,5.8s3.2,2.9,5.3,3.9c2.1,1,4.4,1.5,7,1.5c2.5,0,4.8-0.5,6.8-1.5c2.1-1,3.8-2.3,5.3-3.9
	c1.5-1.6,2.6-3.6,3.4-5.8c0.8-2.2,1.2-4.5,1.2-7c0-2.4-0.4-4.8-1.2-7c-0.8-2.2-1.9-4.1-3.4-5.8c-1.5-1.6-3.2-2.9-5.3-3.9
	c-2.1-1-4.3-1.5-6.8-1.5c-2.6,0-5,0.5-7.1,1.5c-2.1,1-3.8,2.3-5.3,3.9c-1.5,1.6-2.6,3.5-3.3,5.7C328.9,62.1,328.5,64.4,328.5,66.9"
	/>
<path class="st0" d="M381.3,95.4v-57h13.3v9.2c0.6-1.3,1.6-2.6,2.7-3.8c1.2-1.2,2.6-2.3,4.2-3.2c1.6-0.9,3.3-1.7,5.1-2.2
	c1.9-0.5,3.7-0.8,5.6-0.8c2.1,0,3.9,0.3,5.3,0.9v12.3c-1.1-0.2-2-0.4-2.7-0.5c-0.7-0.1-1.6-0.1-2.6-0.1c-5.7,0-10.1,1.6-13.1,4.9
	c-3,3.3-4.5,8.5-4.5,15.7v24.6H381.3z"/>
<path class="st0" d="M419,66.9c0-4,0.7-7.8,2.2-11.4c1.4-3.6,3.4-6.9,6-9.6c2.6-2.8,5.6-4.9,9.2-6.5c3.6-1.6,7.5-2.4,11.8-2.4
	c3.3,0,6.7,0.8,10,2.5c3.3,1.6,5.9,3.9,7.7,6.8v-7.7h13.3v57h-13.3v-7.7c-1.8,2.9-4.3,5.1-7.7,6.8c-3.3,1.6-6.6,2.5-10,2.5
	c-4.3,0-8.3-0.8-11.9-2.4c-3.6-1.6-6.6-3.8-9.2-6.6c-2.6-2.8-4.6-6-6-9.6C419.7,74.8,419,71,419,66.9 M432.3,66.9
	c0,2.4,0.4,4.8,1.2,7c0.8,2.2,1.9,4.1,3.4,5.8c1.5,1.6,3.2,2.9,5.3,3.9c2.1,1,4.3,1.5,6.8,1.5c2.5,0,4.8-0.5,6.9-1.5
	c2.1-1,3.9-2.3,5.3-3.9c1.5-1.6,2.6-3.6,3.4-5.8c0.8-2.2,1.2-4.5,1.2-7c0-2.4-0.4-4.8-1.2-7c-0.8-2.2-2-4.1-3.4-5.8
	c-1.5-1.6-3.2-2.9-5.3-3.9c-2.1-1-4.4-1.5-6.9-1.5c-2.5,0-4.8,0.5-6.8,1.5c-2.1,1-3.8,2.3-5.3,3.9c-1.5,1.6-2.6,3.5-3.4,5.7
	C432.7,62.1,432.3,64.4,432.3,66.9"/>
<path class="st0" d="M486.2,49.5V38.4h9.7V21.1h13.3v17.3h13.1v11.1h-13.1V73c0,2.4,0.2,4.4,0.5,5.9c0.4,1.5,0.9,2.6,1.6,3.4
	c0.7,0.8,1.6,1.3,2.6,1.6c1,0.3,2.2,0.4,3.5,0.4c1.1,0,2.3,0,3.7-0.1c1.4-0.1,2.4-0.2,3-0.4v11.7c-1.1,0.2-2.5,0.3-4.3,0.5
	c-1.8,0.2-3.7,0.2-5.6,0.2c-1.6,0-3.5-0.1-5.6-0.4c-2.1-0.3-4.1-1.1-6.1-2.4c-1.9-1.3-3.5-3.3-4.8-6c-1.3-2.7-1.9-6.4-1.9-11.3V49.5
	H486.2z"/>
<path class="st0" d="M528.3,66.9c0-4,0.7-7.8,2.2-11.4c1.4-3.6,3.5-6.9,6.1-9.6c2.6-2.8,5.7-4.9,9.4-6.5c3.7-1.6,7.8-2.4,12.4-2.4
	c4.6,0,8.7,0.8,12.4,2.4c3.7,1.6,6.9,3.8,9.5,6.5c2.6,2.8,4.7,6,6.1,9.6c1.4,3.6,2.1,7.5,2.1,11.5c0,4.1-0.7,7.9-2.1,11.5
	c-1.4,3.6-3.4,6.8-6.1,9.6c-2.7,2.8-5.8,5-9.5,6.6c-3.7,1.6-7.9,2.4-12.4,2.4c-4.6,0-8.7-0.8-12.4-2.4c-3.7-1.6-6.8-3.8-9.4-6.6
	c-2.6-2.8-4.6-6-6.1-9.6C529,74.8,528.3,71,528.3,66.9 M541.6,66.9c0,2.4,0.4,4.8,1.2,7c0.8,2.2,1.9,4.1,3.4,5.8
	c1.5,1.6,3.2,2.9,5.3,3.9c2.1,1,4.3,1.5,6.8,1.5c2.5,0,4.8-0.5,6.9-1.5c2.1-1,3.9-2.3,5.3-3.9c1.5-1.6,2.6-3.6,3.4-5.8
	c0.8-2.2,1.2-4.5,1.2-7c0-2.4-0.4-4.8-1.2-7c-0.8-2.2-2-4.1-3.4-5.8c-1.5-1.6-3.2-2.9-5.3-3.9c-2.1-1-4.4-1.5-6.9-1.5
	c-2.5,0-4.8,0.5-6.8,1.5c-2.1,1-3.8,2.3-5.3,3.9c-1.5,1.6-2.6,3.5-3.4,5.7C542,62.1,541.6,64.4,541.6,66.9"/>
</svg>
